<svg width="16" height="17" viewBox="0 0 16 17" fill="none" xmlns="http://www.w3.org/2000/svg">
<g clip-path="url(#clip0_1433_15123)">
<path d="M12.8686 7.29373C12.6819 7.29373 12.4989 7.31023 12.3211 7.34173L11.9368 6.01743L11.6355 4.93626H12.8686C13.2225 4.93626 13.3809 5.14466 13.3809 5.35116C13.3809 5.46853 13.3295 5.57893 13.2362 5.66196C13.1087 5.77543 12.9104 5.83543 12.6627 5.83543V6.5021C13.1853 6.5021 13.504 6.31603 13.6794 6.15996C13.9134 5.9517 14.0476 5.6569 14.0476 5.35113C14.0476 5.0644 13.935 4.79636 13.7305 4.59636C13.5119 4.38256 13.2139 4.26953 12.8686 4.26953H10.7575L11.1769 5.77386H6.16093L5.99187 5.32053H7.1028V4.65386H4.418V5.32053H5.28033L5.55857 6.0666L4.54467 7.6312C4.11987 7.41543 3.63963 7.29363 3.13143 7.29363C1.40477 7.29373 0 8.69846 0 10.4251C0 12.1517 1.40477 13.5565 3.1314 13.5565C4.74543 13.5565 6.07803 12.3289 6.245 10.7584H6.6612C6.7986 11.144 7.16717 11.4208 7.5993 11.4208C8.1483 11.4208 8.59493 10.9741 8.59493 10.4251C8.59493 10.2362 8.54203 10.0594 8.4503 9.90876L11.4572 6.75656L11.681 7.5279C10.5416 7.9967 9.73723 9.11863 9.73723 10.4251C9.73723 12.1518 11.142 13.5565 12.8686 13.5565C14.5952 13.5565 16 12.1518 16 10.4251C16 8.69843 14.5952 7.29373 12.8686 7.29373ZM10.8372 6.4406L7.93153 9.48667C7.82757 9.44977 7.71577 9.42946 7.59927 9.42946C7.57437 9.42946 7.54973 9.4307 7.52527 9.4325L6.4095 6.4406H10.8372ZM5.8487 6.84476L6.91467 9.70317C6.80207 9.81 6.7143 9.94266 6.66117 10.0918H6.245C6.1553 9.24796 5.7291 8.5033 5.10353 7.9947L5.8487 6.84476ZM5.57293 10.0918H3.74463L4.7382 8.5585C5.18333 8.94223 5.49003 9.48173 5.57293 10.0918ZM3.1314 12.8899C1.77233 12.8899 0.666667 11.7842 0.666667 10.4251C0.666667 9.06603 1.77233 7.9604 3.1314 7.9604C3.506 7.9604 3.86113 8.04476 4.17937 8.19493L2.51817 10.7584H5.5729C5.40963 11.9603 4.37733 12.8899 3.1314 12.8899ZM7.5993 10.7541C7.4179 10.7541 7.2703 10.6065 7.2703 10.4251C7.2703 10.2437 7.4179 10.0961 7.5993 10.0961C7.78067 10.0961 7.92827 10.2437 7.92827 10.4251C7.92827 10.6065 7.78067 10.7541 7.5993 10.7541ZM12.8686 12.8899C11.5096 12.8899 10.4039 11.7842 10.4039 10.4251C10.4039 9.42216 11.0064 8.5578 11.8682 8.1734L12.5485 10.518L13.1887 10.3323L12.5083 7.98703C12.626 7.9697 12.7462 7.96043 12.8686 7.96043C14.2277 7.96043 15.3334 9.0661 15.3334 10.4251C15.3334 11.7842 14.2277 12.8899 12.8686 12.8899Z" fill="#EE801E"/>
</g>
<defs>
<clipPath id="clip0_1433_15123">
<rect width="16" height="16" fill="white" transform="translate(0 0.912109)"/>
</clipPath>
</defs>
</svg>
