<svg width="16" height="16" viewBox="0 0 16 16" fill="none" xmlns="http://www.w3.org/2000/svg">
<path d="M1.55554 5.58693L3.1111 7.14249M6.45399 1.7436C6.47509 2.0021 6.58685 2.24483 6.76954 2.42893C6.97784 2.6373 7.09486 2.91986 7.09486 3.21449C7.09486 3.50911 6.97784 3.79168 6.76954 4.00004C6.56124 4.20841 6.44422 4.49097 6.44422 4.7856C6.44422 5.08023 6.56124 5.36279 6.76954 5.57115C6.97784 5.77952 7.09486 6.06208 7.09486 6.35671C7.09486 6.65134 6.97784 6.9339 6.76954 7.14227M7.68221 1.5636C7.65999 1.87427 7.76265 2.1916 7.99999 2.42893C8.20829 2.6373 8.3253 2.91986 8.3253 3.21449C8.3253 3.50911 8.20829 3.79168 7.99999 4.00004C7.79169 4.20841 7.67467 4.49097 7.67467 4.7856C7.67467 5.08023 7.79169 5.36279 7.99999 5.57115C8.20829 5.77952 8.3253 6.06208 8.3253 6.35671C8.3253 6.65134 8.20829 6.9339 7.99999 7.14227M8.8911 1.61849C8.8871 1.76844 8.91368 1.91763 8.96923 2.05697C9.02478 2.19631 9.10814 2.32287 9.21421 2.42893C9.42251 2.6373 9.53953 2.91986 9.53953 3.21449C9.53953 3.50911 9.42251 3.79168 9.21421 4.00004C9.00591 4.20841 8.88889 4.49097 8.88889 4.7856C8.88889 5.08023 9.00591 5.36279 9.21421 5.57115C9.42251 5.77952 9.53953 6.06208 9.53953 6.35671C9.53953 6.65134 9.42251 6.9339 9.21421 7.14227M1.55554 8.00004C1.55554 11.5594 4.44065 14.4445 7.99999 14.4445C11.5593 14.4445 14.4444 11.5594 14.4444 8.00004H1.55554Z" stroke="#EE801E" stroke-width="0.7" stroke-miterlimit="10" stroke-linecap="round" stroke-linejoin="round"/>
</svg>
