<svg width="9" height="8" viewBox="0 0 9 8" fill="none" xmlns="http://www.w3.org/2000/svg">
    <g clip-path="url(#clip0_14467_90807)">
        <path
            d="M4.51419 4.31384C4.09597 4.31384 3.69488 4.14771 3.39916 3.85198C3.10343 3.55626 2.9373 3.15517 2.9373 2.73695H3.56805C3.56805 2.98788 3.66774 3.22853 3.84517 3.40597C4.02261 3.5834 4.26326 3.68308 4.51419 3.68308C4.76512 3.68308 5.00577 3.5834 5.18321 3.40597C5.36064 3.22853 5.46033 2.98788 5.46033 2.73695H6.09108C6.09108 3.15517 5.92495 3.55626 5.62922 3.85198C5.3335 4.14771 4.93241 4.31384 4.51419 4.31384ZM4.51419 1.16005C4.76512 1.16005 5.00577 1.25974 5.18321 1.43717C5.36064 1.61461 5.46033 1.85526 5.46033 2.10619H3.56805C3.56805 1.85526 3.66774 1.61461 3.84517 1.43717C4.02261 1.25974 4.26326 1.16005 4.51419 1.16005ZM6.72184 2.10619H6.09108C6.09108 1.89911 6.0503 1.69406 5.97105 1.50274C5.8918 1.31142 5.77565 1.13759 5.62922 0.991158C5.48279 0.84473 5.30896 0.728577 5.11764 0.649331C4.92632 0.570084 4.72127 0.529297 4.51419 0.529297C4.09597 0.529297 3.69488 0.695433 3.39916 0.991158C3.10343 1.28688 2.9373 1.68797 2.9373 2.10619H2.30654C1.95647 2.10619 1.67578 2.38688 1.67578 2.73695V6.52149C1.67578 6.68878 1.74224 6.84922 1.86053 6.96751C1.97882 7.0858 2.13925 7.15225 2.30654 7.15225H6.72184C6.88913 7.15225 7.04956 7.0858 7.16785 6.96751C7.28614 6.84922 7.3526 6.68878 7.3526 6.52149V2.73695C7.3526 2.56966 7.28614 2.40923 7.16785 2.29094C7.04956 2.17265 6.88913 2.10619 6.72184 2.10619Z"
            fill="#F27A21" />
    </g>
    <defs>
        <clipPath id="clip0_14467_90807">
            <rect width="7.56909" height="7.56909" fill="white"
                transform="translate(0.730469 0.214844)" />
        </clipPath>
    </defs>
</svg>
