<svg width="318" height="144" viewBox="0 0 318 144" fill="none" xmlns="http://www.w3.org/2000/svg">
    <g filter="url(#filter0_d_6255_6771)">
        <g filter="url(#filter1_d_6255_6771)">
            <path
                d="M267.106 44.2555L263.343 51.7817C263.016 52.4265 262.355 52.8347 261.637 52.8347H254.56C253.139 52.8347 252.217 51.3409 252.854 50.0675L256.617 42.5413C256.943 41.8964 257.604 41.4883 258.323 41.4883H265.4C266.82 41.4883 267.743 42.9821 267.106 44.2555Z"
                fill="white" />
            <path
                d="M312.655 84.7641C312.329 84.4376 311.929 84.209 311.48 84.0784C311.48 84.0784 311.48 84.0784 311.464 84.0784C311.284 84.0376 311.105 84.005 310.925 83.9886C310.835 83.9805 310.729 83.9805 310.639 83.9805C310.003 83.9641 309.447 83.8335 308.933 83.6131C308.566 83.458 308.239 83.2539 307.937 83.0009C306.933 82.1438 306.868 81.6948 306.868 81.6132C306.868 81.5397 306.868 81.4908 306.901 81.4336L306.933 81.2949C307.244 79.7603 307.488 77.744 307.684 75.2951C307.774 74.2176 307.831 73.2136 307.831 72.2504C307.831 68.8465 307.244 66.267 306.068 64.3977C304.721 62.2509 303.105 61.8183 301.978 61.8183C300.983 61.8183 299.905 62.1611 298.795 62.8386L298.672 62.8957C295.815 65.0426 294.33 67.3935 294.232 69.8913C294.15 72.0055 294.109 73.1973 294.109 73.4422C294.109 77.3522 295.285 81.1398 297.652 84.7396L299.007 86.6905L297.187 89.8904C296.232 91.5556 295.097 92.8698 293.832 93.8575C292.64 94.7554 291.571 95.2044 290.64 95.2044C289.669 95.2044 288.649 93.5881 287.849 90.7475C286.869 87.2782 286.355 82.5601 286.355 76.7155C286.355 73.8014 286.257 71.7035 286.036 70.275C285.808 68.6832 285.392 67.5159 284.763 66.7323C282.788 64.1528 280.249 63.8263 277.506 66.4956C276.796 67.32 276.331 68.4302 276.151 69.7444C275.98 70.9117 275.906 72.8708 275.906 75.7604C275.931 76.8706 275.963 77.9481 276.053 79.0011C275.474 79.8909 274.853 81.0418 274.151 82.4703C272.698 85.6702 270.804 88.5435 268.56 91.025C265.743 94.1269 264.364 94.4616 263.907 94.4616C262.584 94.4616 258.568 94.4616 258.568 83.205C258.568 79.6541 258.968 75.2625 259.768 70.177C260.299 67.0017 260.576 64.7079 260.576 63.1161C260.576 61.4591 260.185 60.2918 259.36 59.5571C258.585 58.8878 257.425 58.5531 255.834 58.5531C253.818 58.5531 251.099 59.4674 249.695 63.7855C248.699 66.8384 248.21 71.7933 248.21 78.9358C248.21 79.4664 248.21 79.997 248.218 80.4949C247.744 81.0826 247.263 81.7438 246.732 82.4948C243.149 87.6701 239.647 91.5801 236.324 94.1677C233.108 96.6492 230.504 97.9145 228.537 97.9145C227.256 97.9145 225.803 96.9758 224.211 95.1146C222.929 93.6045 222.056 92.0127 221.582 90.4046C221.035 88.3476 220.758 84.658 220.758 79.4501C220.758 75.4747 220.913 72.4055 221.239 70.3811C221.525 68.8138 221.77 68.1282 221.909 67.8588C222.864 67.6139 224.301 66.3895 228.129 60.9122C231.141 56.6022 234.3 51.5575 237.516 45.9088C247.353 28.3749 252.136 16.2367 252.136 8.84935C252.136 6.26988 251.524 4.19653 250.34 2.71905C248.985 1.02117 247.271 0.164062 245.271 0.164062C241.72 0.164062 237.337 2.93943 231.908 8.65345C219.852 21.3549 212.252 41.8111 209.297 69.4505C209.028 72.0953 208.881 74.6421 208.881 77.0257C208.881 82.5438 209.632 87.4497 211.15 91.6536C213.387 97.8002 217.085 102.159 222.195 104.633C223.95 105.481 225.803 105.906 227.713 105.906C234.455 105.906 241.549 100.78 248.797 90.6658C248.993 91.6617 249.246 92.5433 249.556 93.2616C251.279 97.9798 254.397 101.139 258.764 102.624C260.772 103.351 262.258 103.71 263.311 103.71C264.307 103.71 265.523 103.416 267.082 102.755C270.845 100.959 274.412 96.7553 277.914 89.9393C278.086 90.5516 278.282 91.1311 278.502 91.7026C280.159 96.3227 282.412 99.3919 285.163 100.853C287.285 101.996 288.159 102.192 288.689 102.224C289.31 102.273 289.677 102.29 289.832 102.29C290.877 102.29 292.077 102.029 293.399 101.514C296.689 100.118 299.668 97.237 302.281 92.9025C303.195 91.3434 303.75 90.8372 303.946 90.6985C304.615 90.9679 305.284 91.1801 305.962 91.3434C306.566 91.4821 307.154 91.5719 307.75 91.6127H307.831C307.839 91.6046 307.839 91.6127 307.848 91.6127C309.097 91.8413 310.623 91.3352 311.823 90.1679C313.545 88.4619 313.913 86.0538 312.655 84.7641ZM224.039 53.2227C225.182 48.0148 226.635 42.6437 228.349 37.3215C230.08 32.0074 231.851 27.5178 233.639 23.9996C235.108 21.1345 236.773 18.3754 238.618 15.8204C240.439 13.2818 242.038 11.3472 243.377 10.0983C244.218 9.29014 244.765 8.89832 245.091 8.69425C245.14 8.92281 245.173 9.28198 245.173 9.78807C245.173 12.6859 244.381 16.3674 242.855 20.7508C239.81 29.5667 234.757 39.4683 227.802 50.1862C225.803 53.3044 224.333 55.5247 223.256 57.1164C223.46 56.0389 223.705 54.7819 224.039 53.2227ZM303.26 79.5807C302.991 79.5807 302.623 78.8215 302.215 77.3032C301.799 75.7849 301.579 74.2421 301.579 72.6504C301.579 69.8995 301.987 67.9159 302.778 66.7241C302.909 66.4956 303.023 66.3731 303.121 66.3731C303.521 66.3731 303.709 69.426 303.709 75.5074C303.709 78.2175 303.562 79.5807 303.26 79.5807Z"
                fill="white" />
            <path
                d="M4.81738 105.901V44.9648H34.8241C46.7582 44.9648 53.1824 51.389 53.1824 61.5763C53.1824 66.8087 49.9662 71.2085 45.746 72.9553C50.8886 74.8818 55.0109 79.0122 55.0109 87.7302C55.0109 98.8317 47.5745 105.901 32.2528 105.901H4.81738ZM17.1188 55.5194V68.7351H33.1752C38.2199 68.7351 40.881 66.4414 40.881 62.1314C40.881 57.454 38.3994 55.5276 32.4405 55.5276H17.1188V55.5194ZM33.2732 95.5339C39.1504 95.5339 42.636 91.7707 42.636 86.8159C42.636 81.4937 39.1504 79.1101 33.4609 79.1101H17.127V95.542H33.2732V95.5339Z"
                fill="white" />
            <path
                d="M79.974 58.5234C65.6563 58.5234 56.7588 67.9679 56.7588 82.2856C56.7588 96.3257 65.3788 106.048 79.974 106.048C94.5692 106.048 103.189 96.3175 103.189 82.2856C103.197 67.9679 94.2998 58.5234 79.974 58.5234ZM79.974 96.0481C72.7172 96.0481 69.0521 91.4688 69.0521 82.2856C69.0521 73.1023 72.7254 68.6127 79.974 68.6127C87.2308 68.6127 90.8959 73.1023 90.8959 82.2856C90.9041 91.4688 87.2308 96.0481 79.974 96.0481Z"
                fill="white" />
            <path
                d="M129.023 58.5234C114.705 58.5234 105.808 67.9679 105.808 82.2856C105.808 96.3257 114.428 106.048 129.023 106.048C143.618 106.048 152.238 96.3175 152.238 82.2856C152.238 67.9679 143.341 58.5234 129.023 58.5234ZM129.023 96.0481C121.766 96.0481 118.101 91.4688 118.101 82.2856C118.101 73.1023 121.774 68.6127 129.023 68.6127C136.28 68.6127 139.945 73.1023 139.945 82.2856C139.945 91.4688 136.28 96.0481 129.023 96.0481Z"
                fill="white" />
            <path
                d="M139.953 111.883C139.953 121.066 136.28 125.645 129.031 125.645C121.782 125.645 118.109 121.066 118.109 111.883H105.808C105.808 125.923 114.428 135.645 129.023 135.645C143.618 135.645 152.238 125.915 152.238 111.883H139.953Z"
                fill="white" />
            <path
                d="M178.074 58.5234C163.756 58.5234 154.858 67.9679 154.858 82.2856C154.858 96.3257 163.478 106.048 178.074 106.048C192.669 106.048 201.289 96.3175 201.289 82.2856C201.289 67.9679 192.391 58.5234 178.074 58.5234ZM178.074 96.0481C170.817 96.0481 167.152 91.4688 167.152 82.2856C167.152 73.1023 170.825 68.6127 178.074 68.6127C185.322 68.6127 188.996 73.1023 188.996 82.2856C188.996 91.4688 185.322 96.0481 178.074 96.0481Z"
                fill="white" />
        </g>
    </g>
    <defs>
        <filter id="filter0_d_6255_6771" x="0.816406" y="0.164062" width="316.585" height="143.48"
            filterUnits="userSpaceOnUse" color-interpolation-filters="sRGB">
            <feFlood flood-opacity="0" result="BackgroundImageFix" />
            <feColorMatrix in="SourceAlpha" type="matrix"
                values="0 0 0 0 0 0 0 0 0 0 0 0 0 0 0 0 0 0 127 0" result="hardAlpha" />
            <feOffset dy="4" />
            <feGaussianBlur stdDeviation="2" />
            <feComposite in2="hardAlpha" operator="out" />
            <feColorMatrix type="matrix" values="0 0 0 0 0 0 0 0 0 0 0 0 0 0 0 0 0 0 0.25 0" />
            <feBlend mode="normal" in2="BackgroundImageFix" result="effect1_dropShadow_6255_6771" />
            <feBlend mode="normal" in="SourceGraphic" in2="effect1_dropShadow_6255_6771"
                result="shape" />
        </filter>
        <filter id="filter1_d_6255_6771" x="0.817383" y="0.164062" width="316.584" height="143.48"
            filterUnits="userSpaceOnUse" color-interpolation-filters="sRGB">
            <feFlood flood-opacity="0" result="BackgroundImageFix" />
            <feColorMatrix in="SourceAlpha" type="matrix"
                values="0 0 0 0 0 0 0 0 0 0 0 0 0 0 0 0 0 0 127 0" result="hardAlpha" />
            <feOffset dy="4" />
            <feGaussianBlur stdDeviation="2" />
            <feComposite in2="hardAlpha" operator="out" />
            <feColorMatrix type="matrix" values="0 0 0 0 0 0 0 0 0 0 0 0 0 0 0 0 0 0 0.25 0" />
            <feBlend mode="normal" in2="BackgroundImageFix" result="effect1_dropShadow_6255_6771" />
            <feBlend mode="normal" in="SourceGraphic" in2="effect1_dropShadow_6255_6771"
                result="shape" />
        </filter>
    </defs>
</svg>
